<?xml version="1.0" standalone="no"?>
<!DOCTYPE svg PUBLIC "-//W3C//DTD SVG 20010904//EN"
 "http://www.w3.org/TR/2001/REC-SVG-20010904/DTD/svg10.dtd">
<svg version="1.0" xmlns="http://www.w3.org/2000/svg"
 width="1024.000000pt" height="1024.000000pt" viewBox="0 0 1024.000000 1024.000000"
 preserveAspectRatio="xMidYMid meet">
<metadata>
Created by potrace 1.14, written by Peter Selinger 2001-2017
</metadata>
<g transform="translate(0.000000,1024.000000) scale(0.100000,-0.100000)"
fill="#000000" stroke="none">
<path d="M5035 10231 c-95 -25 -145 -64 -285 -221 -36 -40 -83 -92 -105 -116
-22 -23 -62 -68 -90 -99 -27 -32 -71 -79 -96 -106 -25 -26 -73 -79 -106 -116
-34 -37 -72 -80 -84 -94 -13 -14 -62 -67 -109 -119 -47 -51 -96 -105 -110
-120 -14 -15 -45 -49 -69 -76 -52 -59 -192 -212 -241 -266 -35 -37 -147 -161
-185 -203 -36 -40 -169 -187 -205 -226 -19 -20 -60 -65 -90 -99 -30 -33 -71
-78 -90 -99 -19 -20 -67 -73 -107 -117 -87 -96 -97 -107 -200 -220 -45 -49
-91 -100 -103 -114 -11 -13 -51 -57 -88 -97 -37 -41 -83 -91 -102 -112 -111
-121 -198 -217 -223 -245 -132 -146 -277 -306 -314 -344 -18 -19 -33 -36 -33
-38 0 -3 -15 -20 -32 -38 -111 -113 -176 -209 -195 -289 -10 -42 -11 -177 -2
-218 11 -49 52 -137 77 -167 9 -12 24 -29 32 -39 64 -79 190 -140 305 -149 32
-3 61 -7 63 -9 3 -2 13 0 23 5 11 7 20 7 24 0 4 -6 15 -6 30 0 14 5 25 6 25 2
0 -4 27 -7 60 -7 33 0 60 3 60 7 0 4 11 3 25 -2 14 -5 25 -6 25 -1 0 5 18 5
40 1 22 -4 40 -5 40 -1 0 7 100 4 107 -3 3 -2 -323 -332 -724 -733 -400 -400
-744 -748 -764 -773 -40 -50 -74 -110 -62 -110 5 0 2 -4 -4 -8 -17 -11 -27
-73 -28 -167 0 -135 38 -222 143 -323 30 -28 61 -52 68 -52 8 0 14 -3 14 -8 0
-7 18 -15 85 -41 17 -6 56 -13 87 -15 32 -3 61 -7 66 -10 4 -2 14 -1 22 4 7 4
24 4 36 0 14 -6 26 -5 29 0 4 6 13 7 24 1 10 -6 23 -6 31 -1 8 5 18 6 23 3 11
-7 411 -8 423 -1 9 6 54 -8 54 -16 0 -3 -8 -13 -18 -23 -10 -10 -54 -61 -97
-113 -44 -52 -83 -96 -87 -98 -5 -2 -8 -10 -8 -17 0 -7 -4 -15 -9 -17 -5 -1
-37 -37 -71 -78 -34 -41 -81 -97 -104 -124 -22 -28 -58 -70 -79 -95 -20 -25
-43 -53 -50 -61 -48 -58 -84 -101 -116 -139 -20 -25 -43 -52 -51 -61 -8 -9
-33 -38 -55 -65 -22 -28 -44 -55 -50 -61 -5 -6 -26 -31 -46 -55 -20 -24 -53
-64 -74 -89 -20 -25 -41 -47 -46 -48 -5 -2 -9 -8 -9 -13 0 -5 -8 -17 -17 -27
-10 -10 -34 -37 -53 -61 -36 -45 -76 -93 -146 -177 -23 -27 -70 -83 -104 -124
-34 -41 -66 -77 -71 -78 -5 -2 -9 -10 -9 -17 0 -7 -3 -15 -8 -17 -4 -1 -33
-33 -64 -71 -104 -123 -138 -199 -143 -322 -7 -148 36 -257 141 -360 35 -35
80 -69 99 -76 19 -7 35 -16 35 -19 0 -9 99 -32 139 -34 17 -1 31 -4 31 -7 0
-4 16 -3 35 1 19 4 35 4 35 0 0 -5 14 -5 30 0 19 5 30 5 30 -1 0 -6 5 -7 11
-3 14 9 103 9 117 0 6 -3 13 -2 17 3 3 7 15 7 30 1 15 -6 27 -6 30 0 3 6 15 6
30 0 15 -6 27 -6 30 0 3 6 15 6 30 0 15 -6 27 -6 30 0 3 6 15 6 30 0 15 -6 27
-6 30 0 3 6 15 6 30 0 15 -6 27 -6 30 0 3 6 15 6 30 0 15 -6 27 -6 30 0 3 6
15 6 30 0 15 -6 27 -6 30 0 3 6 15 6 30 0 15 -6 27 -6 30 0 3 6 15 6 30 0 15
-6 27 -6 30 0 3 6 15 6 30 0 15 -6 27 -6 30 0 3 6 15 6 30 0 15 -6 27 -6 30 0
3 6 15 6 30 0 15 -6 27 -6 30 0 3 6 15 6 30 0 15 -6 27 -6 30 0 3 6 15 6 30 0
15 -6 27 -6 30 0 3 6 15 6 30 0 15 -6 27 -6 30 0 3 6 15 6 30 0 15 -6 27 -6
30 0 3 6 15 6 30 0 15 -6 27 -6 30 0 3 6 15 6 30 0 15 -6 27 -6 30 0 3 6 15 6
30 0 15 -6 27 -6 30 0 3 6 15 6 30 0 15 -6 27 -6 30 0 3 6 15 6 30 0 15 -6 27
-6 30 0 3 6 15 6 30 0 15 -6 27 -6 30 0 3 6 15 6 30 0 15 -6 27 -6 30 0 3 6
15 6 30 0 15 -6 27 -6 30 0 3 6 15 6 30 0 15 -6 27 -6 30 0 3 6 15 6 30 0 15
-6 27 -6 30 0 3 6 15 6 30 0 15 -6 27 -6 30 0 3 6 15 6 30 0 15 -6 27 -6 30 0
3 6 15 6 30 0 15 -6 27 -6 30 0 3 6 15 6 30 0 15 -6 27 -6 30 0 3 6 15 6 30 0
15 -6 27 -6 30 0 3 6 15 6 30 0 15 -6 27 -6 30 0 3 6 15 6 30 0 15 -6 27 -6
30 0 3 6 15 6 30 0 15 -6 27 -6 30 0 3 6 15 6 30 0 15 -6 27 -6 30 0 3 6 15 6
30 0 15 -6 27 -6 30 0 3 6 15 6 30 0 15 -6 27 -6 30 0 3 6 15 6 30 0 15 -6 27
-6 30 0 3 6 15 6 30 0 15 -6 27 -6 30 0 3 6 15 6 30 0 15 -6 27 -6 30 0 3 5
16 6 28 2 24 -9 56 -8 81 1 8 3 18 2 21 -3 3 -5 15 -6 29 0 12 4 29 5 36 0 7
-5 23 -5 35 0 12 5 28 4 35 0 8 -5 21 -5 30 0 9 5 23 4 32 -1 10 -6 19 -6 23
0 3 6 15 7 28 2 12 -5 32 -5 44 0 13 5 25 4 28 -1 3 -5 15 -6 29 0 12 4 29 5
36 0 7 -5 23 -5 35 0 11 4 28 4 36 0 8 -5 21 -5 29 0 7 4 24 4 37 -1 13 -5 23
-5 23 0 0 5 9 7 20 4 12 -3 19 -11 17 -17 -2 -6 -1 -20 4 -32 4 -11 4 -26 -1
-33 -4 -7 -4 -28 0 -47 4 -19 4 -36 0 -39 -4 -3 -4 -20 0 -39 4 -19 4 -40 0
-47 -5 -7 -5 -22 0 -34 5 -12 5 -27 0 -34 -4 -7 -4 -28 0 -47 4 -19 4 -36 0
-39 -5 -3 -5 -18 -1 -33 5 -15 5 -36 1 -47 -4 -11 -4 -29 0 -41 5 -11 4 -27 0
-34 -5 -8 -7 -17 -4 -21 2 -5 6 -45 8 -91 2 -46 9 -103 16 -128 7 -25 12 -46
11 -47 0 -2 18 -39 41 -84 28 -57 61 -102 112 -153 63 -63 176 -147 176 -129
0 3 9 -2 21 -13 12 -10 23 -18 25 -16 2 2 21 -2 42 -8 69 -21 97 -24 192 -24
99 0 155 6 167 17 3 4 14 7 24 7 9 0 54 19 99 41 61 31 101 60 154 114 83 84
84 85 116 150 14 28 28 51 33 53 4 2 7 11 7 20 0 9 7 36 15 59 8 23 17 73 20
110 3 37 7 69 9 71 3 2 1 16 -3 30 -5 15 -5 36 -1 47 4 11 4 32 -1 47 -4 15
-4 30 1 33 5 3 5 18 0 34 -4 15 -4 34 0 41 4 7 4 24 1 39 -4 14 -4 43 -1 64 4
20 4 40 -1 42 -4 3 -4 19 1 35 5 16 5 32 0 35 -4 3 -4 20 0 39 4 19 5 37 3 40
-3 3 -6 28 -7 55 -1 50 11 70 32 49 7 -7 16 -7 29 0 11 6 25 7 33 2 7 -4 20
-6 28 -2 20 7 80 7 88 -1 3 -3 17 -2 30 3 14 6 26 6 29 0 3 -6 15 -6 30 0 15
6 27 6 30 0 3 -6 15 -6 30 0 15 6 27 6 30 0 3 -6 15 -6 29 0 13 5 27 6 30 3 9
-9 76 -9 76 0 0 5 5 5 11 1 13 -8 1257 -9 1266 -1 3 4 14 2 24 -3 11 -7 20 -7
24 0 3 5 15 6 28 2 24 -9 56 -8 81 1 8 3 18 2 21 -3 3 -5 15 -6 29 0 12 4 29
5 36 0 7 -5 23 -5 35 0 12 5 28 4 35 0 8 -5 21 -5 30 0 9 5 23 4 32 -1 10 -6
19 -6 23 0 3 6 15 7 28 2 12 -5 32 -5 44 0 13 5 25 4 28 -1 3 -5 15 -6 29 0
12 4 29 5 36 0 7 -5 23 -5 35 0 12 5 28 4 35 0 8 -5 21 -5 30 0 9 5 23 4 32
-1 10 -6 19 -6 23 0 3 6 15 7 28 2 12 -5 32 -5 44 0 13 5 25 4 28 -1 3 -5 15
-6 29 0 12 4 29 5 36 0 7 -5 23 -5 35 0 12 5 28 4 35 0 8 -5 21 -5 30 0 9 5
23 4 32 -1 10 -6 19 -6 23 0 3 6 15 7 28 2 12 -5 32 -5 44 0 13 5 25 4 28 -1
3 -5 15 -6 29 0 12 4 29 5 36 0 7 -5 23 -5 35 0 12 5 28 4 35 0 8 -5 21 -5 30
0 9 5 22 5 30 0 8 -5 18 -6 24 -3 11 7 105 7 112 0 3 -3 19 -1 35 3 17 5 29 5
29 0 0 -6 10 -6 25 0 15 6 26 6 30 -1 4 -5 11 -7 16 -4 5 4 17 8 26 9 10 2 34
6 54 10 63 11 157 64 212 118 49 50 97 110 97 123 0 3 7 22 16 43 9 20 18 46
20 57 10 52 11 164 3 205 -6 25 -11 53 -12 63 -1 9 -5 17 -10 17 -4 0 -5 5 -2
10 3 6 1 10 -4 10 -6 0 -11 9 -11 20 0 11 -4 20 -10 20 -5 0 -10 5 -10 11 0
11 -58 88 -108 144 -10 11 -52 61 -93 110 -97 117 -120 144 -141 167 -10 10
-18 21 -18 24 0 3 -6 11 -12 18 -18 19 -84 97 -162 191 -36 44 -72 87 -79 95
-7 8 -33 39 -58 69 -24 30 -59 70 -76 90 -18 20 -33 39 -33 43 0 4 -8 15 -19
25 -10 10 -80 92 -156 183 -75 91 -149 179 -163 196 -15 18 -43 51 -62 75 -19
24 -46 56 -60 71 -14 16 -34 40 -45 54 -11 14 -32 39 -47 55 -16 16 -28 33
-28 37 0 4 -9 14 -20 22 -11 8 -20 18 -20 22 0 4 -8 16 -17 26 -32 32 -73 86
-73 94 0 4 -7 8 -15 8 -22 0 -14 24 10 31 11 3 34 2 50 -1 17 -3 47 -3 67 0
20 4 42 4 49 -1 7 -4 23 -3 35 1 14 6 26 5 29 0 3 -5 15 -6 28 -1 12 5 32 5
44 0 13 -5 25 -4 28 1 4 6 13 7 23 1 10 -5 24 -6 33 -1 8 5 21 5 29 0 7 -4 23
-5 35 0 12 5 28 5 35 0 7 -5 24 -4 36 0 14 6 26 5 29 -1 4 -5 11 -7 16 -4 5 4
42 7 81 9 74 3 208 39 208 57 0 5 6 9 14 9 22 0 101 76 139 132 52 79 75 166
72 268 -1 47 -8 99 -15 115 -23 54 -50 110 -63 129 -6 11 -348 356 -759 768
-412 411 -748 750 -748 752 0 2 9 6 20 9 11 3 20 2 20 -2 0 -8 42 -7 56 1 5 3
18 2 29 -2 11 -4 34 -4 52 1 18 4 33 3 33 -1 0 -5 14 -5 30 0 17 5 30 6 30 2
0 -4 25 -7 55 -7 30 0 55 3 55 7 0 4 11 3 24 -2 13 -5 26 -6 29 -4 3 3 41 7
84 9 92 3 183 37 253 93 60 49 61 50 96 102 62 93 83 169 79 282 -4 129 -45
215 -161 341 -27 29 -80 88 -119 132 -38 43 -81 90 -95 104 -14 14 -68 73
-120 131 -52 58 -99 110 -105 116 -5 6 -46 50 -90 99 -44 49 -103 113 -132
144 -28 31 -60 65 -70 77 -10 12 -56 63 -103 114 -47 51 -93 102 -103 114 -10
12 -55 61 -100 110 -100 109 -117 128 -187 206 -30 34 -71 78 -90 99 -70 76
-205 224 -223 245 -10 11 -39 44 -65 72 -26 28 -83 91 -127 139 -44 49 -92
102 -107 118 -14 15 -53 58 -85 94 -32 36 -82 90 -110 120 -29 30 -53 56 -53
58 0 2 -10 15 -22 27 -20 21 -150 162 -218 238 -14 15 -59 65 -100 110 -114
125 -119 131 -200 221 -41 45 -101 110 -133 145 -32 34 -71 77 -87 95 -92 109
-154 161 -221 185 -50 18 -170 27 -214 15z"/>
</g>
</svg>
